<?xml version="1.0" encoding="utf-8"?>
<!-- Generator: Adobe Illustrator 24.1.1, SVG Export Plug-In . SVG Version: 6.00 Build 0)  -->
<svg version="1.1" id="Capa_1" xmlns="http://www.w3.org/2000/svg" xmlns:xlink="http://www.w3.org/1999/xlink" x="0px" y="0px"
	 viewBox="0 0 1134.6 469.1" style="enable-background:new 0 0 1134.6 469.1;" xml:space="preserve">
<style type="text/css">
	.st0{fill:#004092;}
</style>
<g>
	<g>
		<g>
			<path class="st0" d="M209,324.2c-1.9,0.3-3.3,2.6-3.2,5.2c0.1,4.2,0.3,8.5,0.4,12.7c2.3-0.1,4.5-0.2,6.8-0.3
				c-0.1-4.4-0.3-8.8-0.4-13.1C212.5,325.9,210.9,323.9,209,324.2z M211.8,340.6l-4.5,0.2l-0.4-11.5c-0.1-2.2,1.1-3.8,2.2-4
				c0.1,0,0.1,0,0.2,0c1.1,0,2,1.5,2.1,3.3L211.8,340.6z"/>
		</g>
		<g>
			<path class="st0" d="M228.4,317c-0.2-4.4-0.5-8.7-0.7-13.1c-0.1-2.7-2.1-4.6-4.4-4.4c-2.3,0.3-4,2.6-3.9,5.2
				c0.2,4.3,0.5,8.6,0.7,12.9C222.9,317.4,225.6,317.2,228.4,317z M223.4,300.7c0.1,0,0.2,0,0.3,0c1.5,0,2.8,1.5,2.9,3.3l0.6,11.9
				l-6,0.5l-0.6-11.7C220.4,302.7,221.7,300.9,223.4,300.7z"/>
		</g>
		<g>
			<path class="st0" d="M211.7,318.6c-0.2-4.1-0.5-8.3-0.7-12.4c-0.1-2.5-1.8-4.3-3.7-4c-1.9,0.3-3.4,2.6-3.2,5c0.2,4,0.4,8,0.7,12
				C207.1,319,209.4,318.8,211.7,318.6z M207.5,303.3c0.1,0,0.2,0,0.2,0c1.1,0,2.1,1.3,2.2,3l0.6,11.2l-4.7,0.4l-0.6-10.8
				C205.1,305.3,206.2,303.6,207.5,303.3z"/>
		</g>
		<g>
			<path class="st0" d="M209.8,347.7v1.1c1.1,0,2.1,1.4,2.1,3.2l0.3,9l-4,0.2l-0.5-9.1c0-1.7,0.9-3.3,2-3.3L209.8,347.7
				C209.8,347.7,209.8,347.7,209.8,347.7c-1.9,0-3.3,2-3.2,4.5l0.5,10.3l6.3-0.3l-0.3-10.1C213,349.6,211.6,347.7,209.8,347.7z"/>
		</g>
		<g>
			<path class="st0" d="M311,353.8c0-2.4-1.8-4.3-4-4.4c0,0,0,0,0,0l0,1.1c1.6,0,2.9,1.5,2.9,3.3l0,8.7l-5.9,0l0-8.7
				c0-1.8,1.3-3.2,2.9-3.2v-1.1c-2.2,0-4,1.9-4,4.3l0,9.8l8.1,0L311,353.8z"/>
		</g>
		<g>
			<g>
				<path class="st0" d="M333.6,340.3c0.1,3.7,0,7.4,0,11c0.4,0,0.8,0,1.2,0c0-2.4,0-2.8,0-5.1c0-4,0.6-12.5-1.6-14.5
					c-2.6-2.6-5.9-4.3-9.2-5.6c-0.6-0.3-1.3-0.5-1.9-0.8c-7.6-2.9-15.7-4.6-23.7-6.1c-3.9-0.8-7.9-1.4-11.8-2.1l-2.2-0.4l-7.1-15.3
					c-1.2-3.3-6.9-3.8-12.9-4.3c-3.2-0.3-7.6-0.7-8.4-1.6l-7.8-19c0-0.1-0.1-0.1-0.1-0.2c-0.7-1.2-2.2-1.7-4.3-1.7
					c-4.7,0-13.4,2.5-30.1,8.8c-1.8,0.7-17.5,7.2-17.4,13.8l0.7,65.1h1.2c-0.1-4.4-0.7-65.1-0.7-65.1c-0.1-6.1,16.7-12.7,16.7-12.7
					c20.1-7.5,31.1-10.6,33-7.5l7.9,19.2c2.2,3.2,19.6,1.1,21.3,5.8l7.4,15.9c6.9,1.1,13.7,2.3,20.5,3.8c6.8,1.5,13.6,3.1,20,5.9
					c2.1,0.9,4.1,1.9,5.9,3.2c0.8,0.6,1.4,1.2,2.1,1.8c1.2,1.3,1.5,2.7,1.6,4.4C333.6,338.1,333.6,339.2,333.6,340.3z"/>
			</g>
		</g>
		<g>
			<path class="st0" d="M242.5,320.6c-2.8,0.1-5.1,2.5-5,5.3c0.1,4.6,0.3,9.2,0.4,13.8c3.4-0.1,6.9-0.3,10.3-0.4
				c-0.1-4.6-0.2-9.2-0.4-13.8C247.7,322.7,245.4,320.5,242.5,320.6z M247,338.2l-8,0.3l-0.4-12.7c-0.1-2.2,1.7-4.1,3.9-4.1l0.1,0
				c2.1,0,3.9,1.7,4,3.8C246.7,325.5,246.9,334,247,338.2z"/>
		</g>
		<g>
			<path class="st0" d="M284.5,363l-0.4-14c-0.1-3.2-2.9-5.7-6.3-5.6c-3.4,0.1-6.1,2.7-6,5.9l0.3,13.5L284.5,363z M277.8,344.6
				l0.2,0c2.7,0,4.9,1.9,4.9,4.4l0.4,12.8l-10-0.1l-0.3-12.4C272.9,346.8,275.1,344.7,277.8,344.6z"/>
		</g>
		<g>
			<path class="st0" d="M320,351.2C320,351.2,320,351.2,320,351.2l0,1.1c0.7,0,1.1,0.3,1.4,0.6c0.5,0.5,0.9,1.4,0.9,2.2l0,7.6
				l-4.5,0l0-7.6c0-1.6,1-2.8,2.3-2.8L320,351.2c-1.9,0-3.4,1.7-3.4,3.9l0,8.6l6.7,0l0-8.6C323.3,352.9,321.8,351.2,320,351.2z"/>
		</g>
		<g>
			<path class="st0" d="M225.3,346.7v1.1c1.5,0,2.8,1.5,2.8,3.5l0.4,9.9l-5.8-0.1l-0.3-9.6c0-1.9,1.2-3.6,2.7-3.6L225.3,346.7
				C225.2,346.7,225.2,346.7,225.3,346.7c-2.3,0.1-4,2.2-4,4.8l0.3,10.7l8.1,0.2l-0.4-11.1C229.2,348.7,227.4,346.7,225.3,346.7z"/>
		</g>
		<g>
			<path class="st0" d="M311.1,334.6c0.1-2.4-1.6-4.4-3.8-4.5c-2.2-0.1-4,1.8-4.1,4.2l-0.1,12.3l7.7-0.3L311.1,334.6z M309.7,345.3
				l-5.5,0.2l0.1-11.1c0-1.7,1.3-3.1,2.9-3.1l0.1,0c1.6,0.1,2.8,1.6,2.8,3.4L309.7,345.3z"/>
		</g>
		<g>
			<path class="st0" d="M268.1,338.4c-0.1-4.7-0.2-9.8-0.3-14.5c-0.1-2.9-2.8-5.3-6.1-5.3c0,0,0,0-0.1,0l0.1,1.1
				c2.6,0,4.9,2,4.9,4.2c0.1,2.4,0.1,4.8,0.2,7.3c0,2,0.1,4.1,0.1,6c-1.6,0-3.1,0-4.7,0.1c-1.6,0-3.2,0-4.9,0.1
				c-0.1-4.5-0.2-9-0.3-13.5c0-1,0.4-2,1.1-2.8c0.9-0.9,2.1-1.4,3.5-1.4v-1.1c-3.3,0-5.8,2.4-5.7,5.4c0.1,4.9,0.3,9.7,0.4,14.6
				C260.3,338.4,264.2,338.6,268.1,338.4z"/>
		</g>
		<g>
			<path class="st0" d="M266,362.6l-0.5-12.8c-0.1-3-2.5-5.3-5.5-5.2c-2.9,0.1-5.3,2.5-5.2,5.5l0.3,12.5L266,362.6z M260,345.8
				l0.1,0c2.3,0,4.1,1.8,4.2,4.1l0.5,11.6l-8.5,0l-0.3-11.4C255.9,347.8,257.7,345.8,260,345.8z"/>
		</g>
		<g>
			<path class="st0" d="M225.1,321.8c-2.3,0.2-4.1,2.6-4,5.4c0.1,4.5,0.3,9.1,0.4,13.6c2.8-0.1,5.5-0.2,8.3-0.4
				c-0.1-4.6-0.3-9.2-0.4-13.9C229.3,323.8,227.4,321.6,225.1,321.8z M228.6,339.4l-6,0.3l-0.4-12.5c-0.1-2.1,1.3-4.1,2.9-4.2
				c0.1,0,0.1,0,0.2,0c1.6,0,2.8,1.6,2.9,3.7L228.6,339.4z"/>
		</g>
		<g>
			<path class="st0" d="M323.4,335.9c0.1-2.2-1.4-4.1-3.2-4.2c0,0-0.1,0-0.1,0l0.1,1.1c1.3,0,2.2,1.4,2.2,3.1l-0.3,9.9l-4.5-0.2
				l0.3-9.9c0-1.6,1.1-2.9,2.3-2.9v-1.1c-1.8,0-3.3,1.7-3.4,3.9l-0.3,11l6.7,0.2L323.4,335.9z"/>
		</g>
		<g>
			<path class="st0" d="M246.3,315.3c-0.2-4.3-0.4-8.7-0.7-13c-0.1-2.6-2.3-4.7-4.9-4.5c-2.6,0.2-4.5,2.5-4.4,5.1
				c0.2,4.3,0.5,8.7,0.7,13C240.1,315.7,243.2,315.5,246.3,315.3z M240.8,298.9c0.1,0,0.2,0,0.2,0c1.8,0,3.4,1.5,3.5,3.4l0.6,11.9
				c-2.3,0.2-4.7,0.3-7,0.5l-0.6-11.9C237.4,300.8,238.9,299.1,240.8,298.9z"/>
		</g>
		<g>
			<path class="st0" d="M242.4,345.7v1.1c1.8,0,3.3,1.7,3.4,3.8l0.4,10.6l-6.9,0.1l-0.3-10.4c0-2.1,1.4-3.9,3.3-4L242.4,345.7
				c0,0-0.1,0-0.1,0c-2.5,0.1-4.5,2.4-4.4,5.1l0.3,11.6l9.2-0.1l-0.4-11.7C246.9,347.9,244.9,345.7,242.4,345.7z"/>
		</g>
	</g>
	<g>
		<polygon class="st0" points="198,363 146.1,363 146.1,361 197.9,361 		"/>
	</g>
	<g>
		<g>
			<g>
				<path class="st0" d="M317,264l-0.6,1.2h-57.1l-35.6-59.4h-11.9v59.4h-53.3V73.1c23.2-1.7,40-2.3,64.6-2.3
					c43.2,0,86,13.3,86,65.8c0,32.4-14.2,51.6-33.6,61.4L317,264z M211.8,117.1v49h14.8c17.1,0,28.7-9.3,28.7-24.6
					c0-17.1-11-24.9-26.9-24.9C223.1,116.5,216.8,116.5,211.8,117.1z"/>
			</g>
			<g>
				<path class="st0" d="M333.5,169c0-62.6,43.7-100.5,102-100.5c52.2,0,102,33,102,100.5c0,62-43.7,99.7-102,99.7
					C383.4,268.6,333.5,235.9,333.5,169z M481.9,169c0-32.4-17.4-52.1-46.4-52.1s-46.4,19.7-46.4,52.1c0,31.9,17.4,51.3,46.4,51.3
					S481.9,200.8,481.9,169z"/>
			</g>
			<g>
				<path class="st0" d="M574.9,73.1h45.2l55.3,95.3l52.2-95.3h43.7l11.6,192.1h-49.8l-4.9-101.7h-0.9L686.1,242h-24.9L618.6,164
					h-0.9l-4.1,101.1h-50.4L574.9,73.1z"/>
			</g>
			<g>
				<path class="st0" d="M926.6,244.6h-69.5l-8.1,20.6h-53.3l84-192.1h24l87.5,192.1h-55.6L926.6,244.6z M910.7,208.1l-15.4-34.8
					l-5.2-14.5l-4.6,14.5l-13.9,34.8H910.7z"/>
			</g>
		</g>
		<g>
			<rect x="333.6" y="350.4" class="st0" width="661.5" height="2"/>
		</g>
		<g>
			<path class="st0" d="M357.1,312.1l3.5,7.6l0,0.1H359l-3.4-7.4c-0.2,0-0.4,0-0.7,0h-2.9l-1,7.4h-1.5l2.5-18.1
				c1.2-0.1,2.2-0.2,4.2-0.2c3.4,0,5.3,1.5,5.3,4.5C361.7,309.5,359.6,311.4,357.1,312.1z M360.1,306.3c0-2.2-1.2-3.5-3.9-3.5
				c-1.5,0-2.3,0.1-2.8,0.1l-1.2,8.2h2.4C357.7,311.2,360.1,309.6,360.1,306.3z"/>
			<path class="st0" d="M368.4,303.1l-1,6.6h7.9l-0.2,1.4h-7.9l-1,7.3h8.7l-0.2,1.4h-10.2l2.5-18h9.8l-0.2,1.4H368.4z"/>
			<path class="st0" d="M391.2,306.2c0,4-2.7,6.4-7.3,6.4c-0.8,0-1.7-0.1-2.4-0.1l-1,7.3h-1.5l2.5-18c1-0.1,2.2-0.1,4.1-0.1
				C389.5,301.6,391.2,303.5,391.2,306.2z M389.7,306.4c0-2-1.2-3.5-4.2-3.5c-1.1,0-2.3,0-2.7,0.1l-1.1,8.2c0.7,0.1,1.7,0.2,2.3,0.2
				C387.6,311.4,389.7,309.6,389.7,306.4z"/>
			<path class="st0" d="M393.2,311.8c0-6.4,4-10.4,9.3-10.4c4.9,0,8.2,3.2,8.2,8.3c0,6.3-3.9,10.4-9.2,10.4
				C396.5,320.1,393.2,316.9,393.2,311.8z M409.1,309.9c0-4.5-2.7-7.2-6.8-7.2c-4.6,0-7.6,3.7-7.6,9c0,4.5,2.7,7.1,6.9,7.1
				C406,318.8,409.1,315.1,409.1,309.9z"/>
			<path class="st0" d="M421.1,312.1l3.5,7.6l0,0.1h-1.5l-3.4-7.4c-0.2,0-0.4,0-0.7,0h-2.9l-1,7.4h-1.5l2.5-18.1
				c1.2-0.1,2.2-0.2,4.2-0.2c3.4,0,5.3,1.5,5.3,4.5C425.7,309.5,423.7,311.4,421.1,312.1z M424.2,306.3c0-2.2-1.2-3.5-3.9-3.5
				c-1.5,0-2.3,0.1-2.8,0.1l-1.2,8.2h2.4C421.7,311.2,424.2,309.6,424.2,306.3z"/>
			<path class="st0" d="M441.7,303.1h-5.9l-2.3,16.7H432l2.4-16.7h-6l0.2-1.3h13.3L441.7,303.1z"/>
			<path class="st0" d="M442,318.8l0-1.5l0.1-0.1c1.3,1,2.8,1.6,4.9,1.6c2.6,0,4.3-1.4,4.3-3.5c0-2.4-1.7-3.4-4-4.5
				c-2.2-1-4.4-2.3-4.4-4.9c0-3.1,2.5-4.7,5.6-4.7c2,0,3.3,0.4,4.4,0.9l0,1.4l-0.1,0c-1.1-0.7-2.5-1.1-4.2-1.1c-2.3,0-4.2,1-4.2,3.1
				c0,2,1.8,2.9,4,3.9c2.2,1,4.4,2.4,4.4,5.5c0,3.1-2.3,5.1-5.7,5.1C444.7,320.2,443.2,319.6,442,318.8z"/>
			<path class="st0" d="M455.3,318.9c0-0.7,0.5-1.2,1.2-1.2c0.7,0,1,0.5,1,1c0,0.6-0.4,1.1-1.1,1.1
				C455.6,319.9,455.3,319.5,455.3,318.9z"/>
			<path class="st0" d="M468,311.8c0-6.4,4-10.4,9.3-10.4c4.9,0,8.2,3.2,8.2,8.3c0,6.3-3.9,10.4-9.2,10.4
				C471.3,320.1,468,316.9,468,311.8z M483.9,309.9c0-4.5-2.7-7.2-6.8-7.2c-4.6,0-7.6,3.7-7.6,9c0,4.5,2.7,7.1,6.9,7.1
				C480.8,318.8,483.9,315.1,483.9,309.9z"/>
			<path class="st0" d="M496,312.1l3.5,7.6l0,0.1h-1.5l-3.4-7.4c-0.2,0-0.4,0-0.7,0H491l-1,7.4h-1.5l2.5-18.1
				c1.2-0.1,2.2-0.2,4.2-0.2c3.4,0,5.3,1.5,5.3,4.5C500.5,309.5,498.5,311.4,496,312.1z M499,306.3c0-2.2-1.2-3.5-3.9-3.5
				c-1.5,0-2.3,0.1-2.8,0.1l-1.2,8.2h2.4C496.5,311.2,499,309.6,499,306.3z"/>
			<path class="st0" d="M518.8,302.6l-0.2,1.4l-0.1,0c-1.5-1-3-1.3-5.1-1.3c-4.9,0-8.5,3.7-8.5,9.4c0,3.9,2.5,6.6,6.7,6.6
				c1.4,0,3.2-0.3,4.6-1.2l0.7-5.3H512l0.1-1.3h6.3l-1,7.4c-2.1,1.3-4.1,1.7-6.2,1.7c-4.9,0-7.9-3.1-7.9-7.7
				c0-6.7,4.3-10.9,10.3-10.9C515.8,301.4,517.4,301.8,518.8,302.6z"/>
			<path class="st0" d="M532.1,314.4h-8.3l-2.9,5.4h-1.5l10-18.4h0.6l5.1,18.4h-1.6L532.1,314.4z M531.8,313.2l-2.2-8.5l-0.1-0.7
				l-0.3,0.7l-4.6,8.5H531.8z"/>
			<path class="st0" d="M540.8,301.6h0.6l9.5,15.2h0.1l2.1-15.1h1.4l-2.6,18.2h-0.5l-9.5-15.2h-0.1l-2.1,15.1h-1.4L540.8,301.6z"/>
			<path class="st0" d="M560.1,301.8h1.5l-2.5,18h-1.5L560.1,301.8z"/>
			<path class="st0" d="M562.9,319.2l13.2-16.2h-10.8l0.2-1.3h12.7l0.1,0.5L565,318.5h11.2l-0.2,1.3H563L562.9,319.2z"/>
			<path class="st0" d="M590.1,314.4h-8.3l-2.9,5.4h-1.5l10-18.4h0.6l5.1,18.4h-1.6L590.1,314.4z M589.8,313.2l-2.2-8.5l-0.1-0.7
				l-0.3,0.7l-4.6,8.5H589.8z"/>
			<path class="st0" d="M608.1,303.1h-5.9l-2.3,16.7h-1.5l2.4-16.7h-6l0.2-1.3h13.3L608.1,303.1z"/>
			<path class="st0" d="M611.6,301.8h1.5l-2.5,18h-1.5L611.6,301.8z"/>
			<path class="st0" d="M616.1,311.8c0-6.4,4-10.4,9.3-10.4c4.9,0,8.2,3.2,8.2,8.3c0,6.3-3.9,10.4-9.2,10.4
				C619.4,320.1,616.1,316.9,616.1,311.8z M632.1,309.9c0-4.5-2.7-7.2-6.8-7.2c-4.6,0-7.6,3.7-7.6,9c0,4.5,2.7,7.1,6.9,7.1
				C629,318.8,632.1,315.1,632.1,309.9z"/>
			<path class="st0" d="M639.2,301.6h0.6l9.5,15.2h0.1l2.1-15.1h1.4l-2.6,18.2h-0.5l-9.5-15.2h-0.1l-2.1,15.1h-1.4L639.2,301.6z"/>
			<path class="st0" d="M666.1,301.8h1.3l4.8,13.1l8.3-13.1h1.3l-1.5,18h-1.4l1.3-15.1h-0.1l-7.9,12.2h-0.7l-4.6-12.3H667l-3,15.2
				h-1.4L666.1,301.8z"/>
			<path class="st0" d="M695.8,314.4h-8.3l-2.9,5.4h-1.5l10-18.4h0.6l5.1,18.4h-1.6L695.8,314.4z M695.5,313.2l-2.2-8.5l-0.1-0.7
				l-0.3,0.7l-4.6,8.5H695.5z"/>
			<path class="st0" d="M704.5,301.6h0.6l9.5,15.2h0.1l2.1-15.1h1.4l-2.6,18.2h-0.5l-9.5-15.2h-0.1l-2.1,15.1h-1.4L704.5,301.6z"/>
			<path class="st0" d="M731.6,314.4h-8.3l-2.9,5.4H719l10-18.4h0.6l5.1,18.4h-1.6L731.6,314.4z M731.3,313.2l-2.2-8.5l-0.1-0.7
				l-0.3,0.7l-4.6,8.5H731.3z"/>
			<path class="st0" d="M752.9,302.6l-0.2,1.4l-0.1,0c-1.5-1-3-1.3-5.1-1.3c-4.9,0-8.5,3.7-8.5,9.4c0,3.9,2.5,6.6,6.7,6.6
				c1.4,0,3.2-0.3,4.6-1.2l0.7-5.3h-4.9l0.1-1.3h6.3l-1,7.4c-2.1,1.3-4.1,1.7-6.2,1.7c-4.9,0-7.9-3.1-7.9-7.7
				c0-6.7,4.3-10.9,10.3-10.9C749.9,301.4,751.4,301.8,752.9,302.6z"/>
			<path class="st0" d="M759.6,303.1l-1,6.6h7.9l-0.2,1.4h-7.9l-1,7.3h8.7l-0.2,1.4h-10.2l2.5-18h9.8l-0.2,1.4H759.6z"/>
			<path class="st0" d="M773.2,301.8h1.3l4.8,13.1l8.3-13.1h1.3l-1.5,18h-1.4l1.3-15.1h-0.1l-7.9,12.2h-0.7l-4.6-12.3h-0.1l-3,15.2
				h-1.4L773.2,301.8z"/>
			<path class="st0" d="M796.4,303.1l-1,6.6h7.9l-0.2,1.4h-7.9l-1,7.3h8.7l-0.2,1.4h-10.2l2.5-18h9.8l-0.2,1.4H796.4z"/>
			<path class="st0" d="M809.5,301.6h0.6l9.5,15.2h0.1l2.1-15.1h1.4l-2.6,18.2h-0.5l-9.5-15.2h-0.1l-2.1,15.1h-1.4L809.5,301.6z"/>
			<path class="st0" d="M839.6,303.1h-5.9l-2.3,16.7h-1.5l2.4-16.7h-6l0.2-1.3h13.3L839.6,303.1z"/>
			<path class="st0" d="M856.4,314.4h-8.3l-2.9,5.4h-1.5l10-18.4h0.6l5.1,18.4h-1.6L856.4,314.4z M856.1,313.2l-2.2-8.5l-0.1-0.7
				l-0.3,0.7l-4.6,8.5H856.1z"/>
			<path class="st0" d="M874.8,306.2c0,4-2.7,6.4-7.3,6.4c-0.8,0-1.7-0.1-2.4-0.1l-1,7.3h-1.5l2.5-18c1-0.1,2.2-0.1,4.1-0.1
				C873.1,301.6,874.8,303.5,874.8,306.2z M873.3,306.4c0-2-1.2-3.5-4.2-3.5c-1.1,0-2.3,0-2.7,0.1l-1.1,8.2c0.7,0.1,1.7,0.2,2.3,0.2
				C871.3,311.4,873.3,309.6,873.3,306.4z"/>
			<path class="st0" d="M889.1,306.2c0,4-2.7,6.4-7.3,6.4c-0.8,0-1.7-0.1-2.4-0.1l-1,7.3h-1.5l2.5-18c1-0.1,2.2-0.1,4.1-0.1
				C887.4,301.6,889.1,303.5,889.1,306.2z M887.6,306.4c0-2-1.2-3.5-4.2-3.5c-1.1,0-2.3,0-2.7,0.1l-1.1,8.2c0.7,0.1,1.7,0.2,2.3,0.2
				C885.5,311.4,887.6,309.6,887.6,306.4z"/>
			<path class="st0" d="M901.1,318.5l-0.2,1.3h-9.9l2.5-18h1.5l-2.3,16.7H901.1z"/>
			<path class="st0" d="M906.7,301.8h1.5l-2.5,18h-1.5L906.7,301.8z"/>
			<path class="st0" d="M911.2,312.2c0-6.6,4.2-10.8,9.9-10.8c2.2,0,4,0.5,5.1,1.2L926,304l-0.1,0c-1.3-0.8-2.8-1.3-5-1.3
				c-4.9,0-8.3,3.8-8.3,9.2c0,4.2,2.7,6.8,7,6.8c1.7,0,3.2-0.4,4.6-1.3l0.1,0l-0.2,1.4c-1.3,0.8-2.8,1.2-4.7,1.2
				C914.4,320.1,911.2,317.1,911.2,312.2z"/>
			<path class="st0" d="M938.4,314.4h-8.3l-2.9,5.4h-1.5l10-18.4h0.6l5.1,18.4h-1.6L938.4,314.4z M938.1,313.2l-2.2-8.5l-0.1-0.7
				l-0.3,0.7l-4.6,8.5H938.1z"/>
			<path class="st0" d="M956.4,303.1h-5.9l-2.3,16.7h-1.5l2.4-16.7h-6l0.2-1.3h13.3L956.4,303.1z"/>
			<path class="st0" d="M959.9,301.8h1.5l-2.5,18h-1.5L959.9,301.8z"/>
			<path class="st0" d="M964.4,311.8c0-6.4,4-10.4,9.3-10.4c4.9,0,8.2,3.2,8.2,8.3c0,6.3-3.9,10.4-9.2,10.4
				C967.7,320.1,964.4,316.9,964.4,311.8z M980.4,309.9c0-4.5-2.7-7.2-6.8-7.2c-4.6,0-7.6,3.7-7.6,9c0,4.5,2.7,7.1,6.9,7.1
				C977.3,318.8,980.4,315.1,980.4,309.9z"/>
			<path class="st0" d="M987.5,301.6h0.6l9.5,15.2h0.1l2.1-15.1h1.4l-2.6,18.2h-0.5l-9.5-15.2h-0.1l-2.1,15.1h-1.4L987.5,301.6z"/>
			<path class="st0" d="M1003.2,318.9c0-0.7,0.5-1.2,1.2-1.2c0.7,0,1,0.5,1,1c0,0.6-0.4,1.1-1.1,1.1
				C1003.6,319.9,1003.2,319.5,1003.2,318.9z"/>
		</g>
		<g>
			<path class="st0" d="M511.3,403.9c-1,0-2.1,0-3.3-0.1v9h-8.7v-31.3c3.5-0.2,6.2-0.4,10.7-0.4c7.9,0,13.9,2.7,13.9,11
				C524.1,400.3,518.4,403.9,511.3,403.9z M515.3,392.4c0-2.7-2-4-4.6-4c-1.2,0-1.9,0-2.6,0v8c0.9,0,1.6,0.1,2.1,0.1
				C513.4,396.6,515.3,395.6,515.3,392.4z"/>
			<path class="st0" d="M527.8,397c0-10.2,7.1-16.4,16.6-16.4c8.5,0,16.6,5.4,16.6,16.4c0,10.1-7.1,16.3-16.6,16.3
				C535.9,413.3,527.8,407.9,527.8,397z M552,397c0-5.3-2.8-8.5-7.6-8.5c-4.7,0-7.6,3.2-7.6,8.5c0,5.2,2.8,8.4,7.6,8.4
				C549.1,405.4,552,402.2,552,397z"/>
			<path class="st0" d="M568.2,381.4h7.4l9,15.6l8.5-15.6h7.1l1.9,31.3H594l-0.8-16.6H593l-6.7,12.8h-4.1l-6.9-12.7h-0.1l-0.7,16.5
				h-8.2L568.2,381.4z"/>
			<path class="st0" d="M621,403.9c-1,0-2.1,0-3.3-0.1v9h-8.7v-31.3c3.5-0.2,6.2-0.4,10.7-0.4c7.9,0,13.9,2.7,13.9,11
				C633.7,400.3,628.1,403.9,621,403.9z M624.9,392.4c0-2.7-2-4-4.6-4c-1.2,0-1.9,0-2.6,0v8c0.9,0,1.6,0.1,2.1,0.1
				C623.1,396.6,624.9,395.6,624.9,392.4z"/>
			<path class="st0" d="M660.5,405.7v7h-21.4v-31.3h21v7h-12.2v4.9h11.3v6.8h-11.3v5.7H660.5z"/>
			<path class="st0" d="M674.3,400.7l-11-19.1l0.1-0.2h9.5l6.1,11.4l5.9-11.4h8.9l0.1,0.2L683,400.8v12h-8.7V400.7z"/>
			<path class="st0" d="M694.8,397c0-10.2,7.1-16.4,16.6-16.4c8.5,0,16.6,5.4,16.6,16.4c0,10.1-7.1,16.3-16.6,16.3
				C702.9,413.3,694.8,407.9,694.8,397z M719,397c0-5.3-2.8-8.5-7.6-8.5c-4.7,0-7.6,3.2-7.6,8.5c0,5.2,2.8,8.4,7.6,8.4
				C716.2,405.4,719,402.2,719,397z"/>
			<path class="st0" d="M744.3,397.4c0-10.6,6.9-16.8,16.7-16.8c2.7,0,5.2,0.3,7.9,1v8.2l-0.1,0.1c-2-0.9-4.2-1.4-6.5-1.4
				c-5.9,0-9,3-9,8.5c0,5.4,3.2,8.4,9.2,8.4c2.6,0,4.3-0.4,6.2-1.1l0.2,0.1v7.9c-2,0.6-5.1,1-7.8,1
				C751.6,413.3,744.3,407.5,744.3,397.4z"/>
			<path class="st0" d="M793,409.4h-11.3l-1.3,3.4h-8.7l13.7-31.3h3.9l14.3,31.3h-9.1L793,409.4z M790.4,403.4l-2.5-5.7l-0.9-2.4
				l-0.8,2.4l-2.3,5.7H790.4z"/>
			<path class="st0" d="M833.2,412.5l-0.1,0.2h-9.3L818,403H816v9.7h-8.7v-31.3c3.8-0.3,6.5-0.4,10.5-0.4c7,0,14,2.2,14,10.7
				c0,5.3-2.3,8.4-5.5,10L833.2,412.5z M816,388.6v8h2.4c2.8,0,4.7-1.5,4.7-4c0-2.8-1.8-4.1-4.4-4.1
				C817.9,388.5,816.8,388.5,816,388.6z"/>
			<path class="st0" d="M864.8,412.5l-0.1,0.2h-9.3l-5.8-9.7h-1.9v9.7h-8.7v-31.3c3.8-0.3,6.5-0.4,10.5-0.4c7,0,14,2.2,14,10.7
				c0,5.3-2.3,8.4-5.5,10L864.8,412.5z M847.6,388.6v8h2.4c2.8,0,4.7-1.5,4.7-4c0-2.8-1.8-4.1-4.4-4.1
				C849.5,388.5,848.4,388.5,847.6,388.6z"/>
			<path class="st0" d="M888.1,409.4h-11.3l-1.3,3.4h-8.7l13.7-31.3h3.9l14.3,31.3h-9.1L888.1,409.4z M885.5,403.4l-2.5-5.7
				l-0.9-2.4l-0.8,2.4l-2.3,5.7H885.5z"/>
			<path class="st0" d="M901.2,411.2v-7.9l0.2-0.1c2.6,1.8,5.5,2.7,8.5,2.7c2.4,0,3.6-0.8,3.6-2.4c0-1.4-0.6-2.3-4.6-4
				c-3.8-1.6-7.6-4.2-7.6-9.3c0-6.7,5.4-9.6,11.6-9.6c4.3,0,6.6,0.6,8.4,1.3v7.4l-0.2,0.1c-1.8-0.9-4.4-1.4-6.9-1.4
				c-2.8,0-4.2,0.6-4.2,1.9c0,1.3,1.4,1.9,4.9,3.4c3.7,1.6,7.4,4.3,7.4,10c0,6.1-4.5,10-11.5,10
				C906.2,413.2,903.6,412.3,901.2,411.2z"/>
			<path class="st0" d="M927,397.4c0-10.6,6.9-16.8,16.7-16.8c2.7,0,5.2,0.3,7.9,1v8.2l-0.1,0.1c-2-0.9-4.2-1.4-6.5-1.4
				c-5.9,0-9,3-9,8.5c0,5.4,3.2,8.4,9.2,8.4c2.6,0,4.3-0.4,6.2-1.1l0.2,0.1v7.9c-2,0.6-5.1,1-7.8,1C934.4,413.3,927,407.5,927,397.4
				z"/>
			<path class="st0" d="M956.1,397c0-10.2,7.1-16.4,16.6-16.4c8.5,0,16.6,5.4,16.6,16.4c0,10.1-7.1,16.3-16.6,16.3
				C964.3,413.3,956.1,407.9,956.1,397z M980.3,397c0-5.3-2.8-8.5-7.6-8.5c-4.7,0-7.6,3.2-7.6,8.5c0,5.2,2.8,8.4,7.6,8.4
				C977.5,405.4,980.3,402.2,980.3,397z"/>
		</g>
	</g>
</g>
</svg>
